<?xml version='1.0' encoding='utf-8'?>
<svg xmlns="http://www.w3.org/2000/svg" width="91.44mm" height="91.44mm" version="1.1" style="shape-rendering:geometricPrecision; text-rendering:geometricPrecision; image-rendering:optimizeQuality; fill-rule:evenodd; clip-rule:evenodd" viewBox="0 0 139.41 139.41"> <defs> <style type="text/css">  .fil1 {fill:white;fill-rule:nonzero} .fil0 {fill:url(#id0)}  </style> <linearGradient id="id0" gradientUnits="userSpaceOnUse" x1="131.04" y1="8.35" x2="8.35" y2="131.04"> <stop offset="0" style="stop-opacity:1; stop-color:#EC268F"/> <stop offset="1" style="stop-opacity:1; stop-color:#F58634"/> </linearGradient> </defs> <g id="Camada_x0020_1"> <metadata id="CorelCorpID_0Corel-Layer"/> <polygon class="fil0" points="-0,139.41 139.41,139.41 139.41,0 -0,0 "/> <path class="fil1" d="M53.62 44.62l12.97 0 -4.5 -4.5c-0.5,-0.5 -0.5,-1.32 0,-1.82 0.5,-0.5 1.32,-0.5 1.82,0l5.79 5.79 5.79 -5.79c0.5,-0.5 1.32,-0.5 1.83,0 0.5,0.5 0.5,1.32 0,1.82l-4.5 4.5 12.97 0c3.4,0 6.48,1.39 8.72,3.63 2.24,2.24 3.63,5.32 3.63,8.72l0 32.16c0,3.4 -1.39,6.48 -3.63,8.72 -2.24,2.24 -5.33,3.63 -8.72,3.63l-32.17 0c-3.4,0 -6.48,-1.39 -8.72,-3.63 -2.24,-2.24 -3.63,-5.32 -3.63,-8.72l0 -32.16c0,-3.4 1.39,-6.48 3.63,-8.72 2.24,-2.24 5.32,-3.63 8.72,-3.63zm16.78 23.46c0.07,-0.02 0.15,-0.03 0.23,-0.03l0.02 -0 0.01 0 0.02 -0 0.04 0 0.02 0 0.01 0 0.02 0c0.08,0 0.15,0.02 0.23,0.03l0 0c0.04,0.01 0.09,0.02 0.13,0.04l0.02 0.01 0.01 0 0.02 0.01 0.01 0 0.02 0.01c0.13,0.05 0.24,0.13 0.34,0.21l0.02 0.01 0.01 0.01 0.02 0.02 0.01 0.01 0.02 0.02c0.14,0.13 0.24,0.3 0.31,0.49l0.01 0.02 0 0.01 0.01 0.03 0 0 0.01 0.03 0 0 0.01 0.03 0 0 0.01 0.03 0 0 0.01 0.03 0 0 0 0.03 0 0.01 0 0.03 0 0.01 0 0.02 0 0.01 0 0.02 0 0.01 0 0.02 0 0.01 0 0.02c0.01,0.14 -0.01,0.28 -0.05,0.41l-1.41 5.26 12.05 -3.23c0.69,-0.18 1.39,0.22 1.58,0.91 0.18,0.69 -0.22,1.39 -0.91,1.58l-14.2 3.8 -0.01 0 -0.03 0.01 0 0c-0.07,0.02 -0.15,0.03 -0.23,0.03l-0.02 0 -0.01 0 -0.02 0 -0.04 0 -0.02 0 -0.01 -0 -0.02 -0c-0.08,-0 -0.15,-0.02 -0.22,-0.03l-0 0c-0.02,-0 -0.04,-0.01 -0.06,-0.02l-0.03 -0.01 -0.01 -0 -0.02 -0.01 -0.01 -0 -0.02 -0.01 0 0 -0.03 -0.01c-0.16,-0.06 -0.3,-0.15 -0.41,-0.27l-0.02 -0.02 -0.01 -0.01 -0.02 -0.02c-0.11,-0.12 -0.2,-0.26 -0.27,-0.41l-0.01 -0.03 -0 -0 -0.01 -0.02 -0 -0.01 -0.01 -0.02 -0 -0.01 -0.01 -0.03c-0.01,-0.02 -0.01,-0.04 -0.02,-0.06l0 -0c-0.02,-0.07 -0.03,-0.15 -0.03,-0.23l-0 -0.02 -0 -0.01 0 -0.09 0 -0.01 0 -0.02c0,-0.08 0.02,-0.15 0.03,-0.23l0 -0 0.01 -0.03 0 -0.01 1.41 -5.27 -12.05 3.23c-0.69,0.18 -1.4,-0.22 -1.58,-0.91 -0.18,-0.69 0.22,-1.39 0.91,-1.58l14.2 -3.8 0.02 -0 0.03 -0.01 0 0zm15.39 -20.88l-32.17 0c-2.68,0 -5.13,1.1 -6.9,2.87 -1.77,1.77 -2.87,4.21 -2.87,6.9l0 32.16c0,2.68 1.1,5.13 2.87,6.9 1.77,1.77 4.21,2.87 6.9,2.87l32.17 0c2.68,0 5.13,-1.1 6.9,-2.87 1.77,-1.77 2.87,-4.21 2.87,-6.9l0 -32.16c0,-2.68 -1.1,-5.13 -2.87,-6.9 -1.77,-1.77 -4.21,-2.87 -6.9,-2.87z"/> </g> </svg>