<?xml version="1.0" encoding="UTF-8" standalone="no"?>
<!DOCTYPE svg PUBLIC "-//W3C//DTD SVG 1.1//EN" "http://www.w3.org/Graphics/SVG/1.1/DTD/svg11.dtd">
<svg width="100%" height="100%" viewBox="0 0 51 68" version="1.1" xmlns="http://www.w3.org/2000/svg" xmlns:xlink="http://www.w3.org/1999/xlink" xml:space="preserve" xmlns:serif="http://www.serif.com/" style="fill-rule:evenodd;clip-rule:evenodd;stroke-linecap:round;stroke-linejoin:round;stroke-miterlimit:1.5;">
    <path d="M1.964,0L35.974,0L50.094,15.47L50.094,65.441C50.094,66.669 49.234,67.651 48.129,67.651L1.964,67.651C0.859,67.651 0,66.669 0,65.441L0,2.21C0,0.982 0.859,0 1.964,0Z" style="fill:rgb(51,204,102);"/>
    <path d="M50.094,15.47L38.062,15.47C36.956,15.47 35.974,14.488 35.974,13.26L35.974,0L50.094,15.47Z" style="fill:rgb(0,51,51);"/>
    <g transform="matrix(0.797907,0,0,0.797907,5.02461,8.96611)">
        <rect x="5.448" y="24.012" width="39.54" height="4.959" style="fill:white;"/>
        <g transform="matrix(1,0,0,1,-0.179259,4.00167)">
            <path d="M5.55,34.551L44.848,34.551" style="fill:none;stroke:white;stroke-width:1.25px;"/>
        </g>
        <g transform="matrix(1,0,0,1,0,-1.02262)">
            <path d="M5.55,34.551L44.848,34.551" style="fill:none;stroke:white;stroke-width:1.25px;"/>
        </g>
        <g transform="matrix(1,0,0,1,-0.0224645,9.04114)">
            <path d="M5.55,34.551L44.848,34.551" style="fill:none;stroke:white;stroke-width:1.25px;"/>
        </g>
        <g transform="matrix(1,0,0,1,6,0)">
            <path d="M11.023,28.327L10.972,48.221" style="fill:none;stroke:white;stroke-width:1.25px;"/>
        </g>
        <g transform="matrix(1,0,0,1,21,0)">
            <path d="M11.023,28.327L10.972,48.221" style="fill:none;stroke:white;stroke-width:1.25px;"/>
        </g>
        <g transform="matrix(3.37872,0,0,3.19963,-11.9473,-78.8943)">
            <rect x="5.075" y="32.109" width="11.749" height="7.746" style="fill:white;fill-opacity:0;stroke:white;stroke-width:0.38px;"/>
        </g>
    </g>
</svg>
