<?xml version="1.0" encoding="UTF-8" standalone="no"?>
<!DOCTYPE svg PUBLIC "-//W3C//DTD SVG 1.1//EN" "http://www.w3.org/Graphics/SVG/1.1/DTD/svg11.dtd">
<svg width="100%" height="100%" viewBox="0 0 51 68" version="1.1" xmlns="http://www.w3.org/2000/svg" xmlns:xlink="http://www.w3.org/1999/xlink" xml:space="preserve" xmlns:serif="http://www.serif.com/" style="fill-rule:evenodd;clip-rule:evenodd;stroke-linejoin:round;stroke-miterlimit:1.41421;">
    <path d="M1.964,0L35.974,0L50.094,15.47L50.094,65.441C50.094,66.669 49.234,67.651 48.129,67.651L1.964,67.651C0.859,67.651 0,66.669 0,65.441L0,2.21C0,0.982 0.859,0 1.964,0Z" style="fill:rgb(255,127,144);"/>
    <path d="M50.094,15.47L38.062,15.47C36.956,15.47 35.974,14.488 35.974,13.26L35.974,0L50.094,15.47Z" style="fill:rgb(183,71,82);"/>
    <g transform="matrix(0.0601015,0,0,0.0601015,1.01578,12.8521)">
        <path d="M558.01,361.82L558.01,323.343C558.01,245.427 487.196,182.263 399.84,182.263C312.484,182.263 241.67,245.426 241.67,323.343L241.67,361.82C228.095,366.644 218.971,379.568 218.97,393.975L218.97,529.845C218.97,547.937 233.361,563.044 251.432,563.923L251.432,567.736C251.432,571.354 254.409,574.332 258.028,574.332L286.947,574.332C290.565,574.332 293.542,571.354 293.542,567.736L293.542,353.126C293.542,349.508 290.565,346.531 286.947,346.53L270.843,346.531L270.843,323.13C270.843,259.536 328.573,207.97 399.843,207.85C471.109,207.972 528.843,259.536 528.843,323.13L528.843,346.531L512.739,346.531C509.12,346.531 506.143,349.508 506.143,353.126L506.143,567.736C506.143,571.354 509.12,574.332 512.739,574.332L541.658,574.332C545.276,574.332 548.253,571.354 548.253,567.736L548.253,563.923C566.324,563.044 580.715,547.937 580.715,529.845L580.715,393.975C580.714,379.568 571.59,366.644 558.015,361.82L558.01,361.82Z" style="fill:white;fill-rule:nonzero;"/>
    </g>
</svg>
