<?xml version="1.0" encoding="UTF-8" standalone="no"?>
<!DOCTYPE svg PUBLIC "-//W3C//DTD SVG 1.1//EN" "http://www.w3.org/Graphics/SVG/1.1/DTD/svg11.dtd">
<svg width="100%" height="100%" viewBox="0 0 51 68" version="1.1" xmlns="http://www.w3.org/2000/svg" xmlns:xlink="http://www.w3.org/1999/xlink" xml:space="preserve" xmlns:serif="http://www.serif.com/" style="fill-rule:evenodd;clip-rule:evenodd;stroke-linejoin:round;stroke-miterlimit:1.41421;">
    <path d="M1.964,0L35.974,0L50.094,15.47L50.094,65.441C50.094,66.669 49.234,67.651 48.129,67.651L1.964,67.651C0.859,67.651 0,66.669 0,65.441L0,2.21C0,0.982 0.859,0 1.964,0Z" style="fill:rgb(209,133,255);"/>
    <path d="M50.094,15.47L38.062,15.47C36.956,15.47 35.974,14.488 35.974,13.26L35.974,0L50.094,15.47Z" style="fill:rgb(128,73,148);"/>
    <g transform="matrix(0.214118,0,0,0.177814,-103.992,1.22902)">
        <g transform="matrix(0.47092,0,0,0.48217,442.12,4.5952)">
            <path d="M442.86,306.65C442.86,328.594 394.493,346.652 335.715,346.652C276.937,346.652 228.57,328.594 228.57,306.65C228.57,284.706 276.937,266.648 335.715,266.648C394.493,266.648 442.86,284.706 442.86,306.65Z" style="fill:rgb(251,248,255);fill-rule:nonzero;"/>
        </g>
        <path d="M650.56,148.23C650.562,148.297 650.56,148.358 650.56,148.426C650.56,159.072 627.965,167.713 600.113,167.713C573.241,167.713 551.239,159.669 549.727,149.541L549.727,176.693C549.724,176.731 549.73,176.775 549.727,176.813C549.71,177.02 549.697,177.223 549.697,177.431C549.697,188.077 572.321,196.718 600.189,196.718C627.331,196.718 649.484,188.523 650.621,178.26C650.621,178.259 650.621,178.246 650.621,178.245C650.623,178.225 650.632,178.191 650.636,178.17C650.688,178.02 650.726,177.855 650.726,177.688L650.726,148.924C650.726,148.673 650.672,148.436 650.561,148.231L650.56,148.23Z" style="fill:white;fill-rule:nonzero;"/>
        <path d="M650.56,188.27C650.562,188.337 650.56,188.398 650.56,188.466C650.56,199.112 627.965,207.753 600.113,207.753C573.241,207.753 551.239,199.709 549.727,189.581L549.727,216.733C549.724,216.771 549.73,216.815 549.727,216.853C549.71,217.06 549.697,217.263 549.697,217.471C549.697,228.117 572.321,236.758 600.189,236.758C627.331,236.758 649.484,228.563 650.621,218.3C650.621,218.299 650.621,218.286 650.621,218.285C650.623,218.265 650.632,218.231 650.636,218.21C650.688,218.06 650.726,217.895 650.726,217.728L650.726,188.964C650.726,188.713 650.672,188.476 650.561,188.271L650.56,188.27Z" style="fill:white;fill-rule:nonzero;"/>
        <path d="M650.56,228.31C650.562,228.377 650.56,228.438 650.56,228.506C650.56,239.152 627.965,247.793 600.113,247.793C573.241,247.793 551.239,239.749 549.727,229.621L549.727,256.773C549.724,256.811 549.73,256.855 549.727,256.893C549.71,257.1 549.697,257.303 549.697,257.511C549.697,268.157 572.321,276.798 600.189,276.798C627.331,276.798 649.484,268.603 650.621,258.34C650.621,258.339 650.621,258.326 650.621,258.325C650.623,258.305 650.632,258.271 650.636,258.25C650.688,258.1 650.726,257.935 650.726,257.768L650.726,229.004C650.726,228.753 650.672,228.516 650.561,228.311L650.56,228.31Z" style="fill:white;fill-rule:nonzero;"/>
    </g>
</svg>
