<?xml version="1.0" encoding="UTF-8" standalone="no"?>
<!DOCTYPE svg PUBLIC "-//W3C//DTD SVG 1.1//EN" "http://www.w3.org/Graphics/SVG/1.1/DTD/svg11.dtd">
<svg width="100%" height="100%" viewBox="0 0 51 68" version="1.1" xmlns="http://www.w3.org/2000/svg" xmlns:xlink="http://www.w3.org/1999/xlink" xml:space="preserve" xmlns:serif="http://www.serif.com/" style="fill-rule:evenodd;clip-rule:evenodd;stroke-linejoin:round;stroke-miterlimit:1.41421;">
    <path d="M1.964,0L35.974,0L50.094,15.47L50.094,65.441C50.094,66.669 49.234,67.651 48.129,67.651L1.964,67.651C0.859,67.651 0,66.669 0,65.441L0,2.21C0,0.982 0.859,0 1.964,0Z" style="fill:rgb(52,171,255);"/>
    <path d="M50.094,15.47L38.062,15.47C36.956,15.47 35.974,14.488 35.974,13.26L35.974,0L50.094,15.47Z" style="fill:rgb(0,65,146);"/>
    <g transform="matrix(0.0123493,0.0124684,-0.0116828,0.0115712,27.2434,23.3327)">
        <path d="M749.532,98.208L776.651,98.208L776.651,30.931L176.328,30.931L176.328,98.209L203.447,98.209C188.884,420.852 142.807,705.953 38.703,921.929C214.442,1162.1 357.903,1399.33 439.781,1630.93L470.021,1630.93L470.021,919.456L452.123,919.456L452.123,899.833L437.891,878.485L437.891,795.035L453.201,795.029L453.201,744.354L499.778,744.354L499.778,795.029L515.088,795.035L515.088,878.485L500.856,899.833L500.856,919.456L482.959,919.456L482.959,1630.93L513.198,1630.93C595.076,1399.33 738.538,1162.1 914.276,921.928C810.172,705.953 764.095,420.852 749.532,98.208Z" style="fill:white;fill-rule:nonzero;"/>
        <rect x="457.244" y="754.543" width="13.989" height="13.989" style="fill:white;"/>
        <rect x="480.533" y="754.543" width="13.989" height="13.989" style="fill:white;"/>
    </g>
</svg>
